# xmcd CD database file
#
# Track frame offsets:
#	150
#	17172
#	27460
#	38025
#	52597
#	68772
#	81977
#	93282
#	109077
#	124605
#	138302
#	149620
#	161335
#	180242
#	195390
#	208520
#	227647
#	238177
#	248300
#	265605
#
# Disc length: 3575 seconds
#
# Revision: 6
# Processed by: cddbd v1.5.1PL0 Copyright (c) Steve Scherf et al.
# Submitted via: CDex 1.51
#
DISCID=fb0df514
DTITLE=佐橋俊彦 - 星獣戦隊ギンガマン音楽集第2巻
DYEAR=1900
DGENRE=サウンドトラック (一般)
TTITLE0=「星獣戦隊ギンガマン」（インストゥルメンタル）
TTITLE1=遙かな故郷に
TTITLE2=大いなる光
TTITLE3=影を追え
TTITLE4=剣将推参
TTITLE5=「見せつけろ星獣魂！」（インストゥルメンタル）
TTITLE6=明日のレジェンド
TTITLE7=やすらぎの時間
TTITLE8=絆を信じて
TTITLE9=魔剣対星獣剣
TTITLE10=銀河炸裂！
TTITLE11=「機刃をむけ！」（インストゥルメンタル）
TTITLE12=謀略の妖帝
TTITLE13=折れた刃
TTITLE14=黒い秘剣
TTITLE15=轟然！機獣合身
TTITLE16=「銀河の王者ギンガイオー」（インストゥルメンタル）
TTITLE17=すべての生命の為に
TTITLE18=「はだしの心で」（インストゥルメンタル）
TTITLE19=今、伝説の一頁が刻まれる
EXTD=
EXTT0=
EXTT1=
EXTT2=
EXTT3=
EXTT4=
EXTT5=
EXTT6=
EXTT7=
EXTT8=
EXTT9=
EXTT10=
EXTT11=
EXTT12=
EXTT13=
EXTT14=
EXTT15=
EXTT16=
EXTT17=
EXTT18=
EXTT19=
PLAYORDER=
